# xmcd CD database file generated by Grip 3.3.1
# 
# Track frame offsets:
#       150
#       19395
#       34821
# 
# Disc length: 719 seconds
# 
# Revision: 2
# Processed by: cddbd v1.5.1PL2 Copyright (c) Steve Scherf et al.
# Submitted via: Grip 3.3.1
# 
DISCID=1f02cd03
DTITLE=Santhi - Sunshower [EP]
DYEAR=2005
DGENRE=Rock
TTITLE0=Sunshower
TTITLE1=Meant
TTITLE2=Just
EXTD=YEAR: 1998
EXTT0=
EXTT1=
EXTT2=
PLAYORDER=
